<svg xmlns="http://www.w3.org/2000/svg" viewBox="0 0 512 512" id="Like">
  <defs>
    <linearGradient id="a" x1="256.005" x2="256.005" y1="30" y2="438.078" gradientUnits="userSpaceOnUse">
      <stop offset="0" stop-color="#777777" class="stopColor00efd1 svgShape"></stop>
      <stop offset="1" stop-color="#757575" class="stopColor00acea svgShape"></stop>
    </linearGradient>
  </defs>
  <g fill="#000000" class="color000000 svgShape">
    <path fill="url(#a)" d="M345.263,86.067A116.191,116.191,0,0,0,256.116,127.2c-21.447-25.98-53.907-41.132-89.369-41.132A116.543,116.543,0,0,0,50.337,202.479c0,46.987,34.146,98.842,101.489,154.127a728.3,728.3,0,0,0,99.355,68.131,10,10,0,0,0,9.6.026,714.046,714.046,0,0,0,99.386-67.635c67.354-55.061,101.505-107.092,101.505-154.649A116.929,116.929,0,0,0,345.263,86.067Zm2.476,255.39c-38.895,31.829-78.291,55.328-91.7,63.025-13.406-7.779-52.824-31.535-91.742-63.517C86.637,277.149,70.337,230.432,70.337,202.479a96.52,96.52,0,0,1,96.41-96.412c33.52,0,63.723,16.16,80.793,43.3A9.9,9.9,0,0,0,255.923,154h.082a9.961,9.961,0,0,0,8.377-4.5,96.681,96.681,0,0,1,177.291,52.97C441.673,230.806,425.376,277.922,347.739,341.457Z"></path>
  </g>
</svg>
