<?xml version="1.0" encoding="utf-8"?>
<!-- Svg Vector Icons : http://www.onlinewebfonts.com/icon -->
<!DOCTYPE svg PUBLIC "-//W3C//DTD SVG 1.1//EN" "http://www.w3.org/Graphics/SVG/1.1/DTD/svg11.dtd">
<svg version="1.1" xmlns="http://www.w3.org/2000/svg" xmlns:xlink="http://www.w3.org/1999/xlink" x="0px" y="0px" viewBox="0 0 256 256" enable-background="new 0 0 256 256" xml:space="preserve">
<metadata> Svg Vector Icons : http://www.onlinewebfonts.com/icon </metadata>
<g> <path fill="#1e95d4" d="M122.4,79.2c0,22.3-18.1,40.3-40.3,40.3c-22.3,0-40.3-18.1-40.3-40.3S59.7,38.9,82,38.9 C104.3,38.9,122.4,56.9,122.4,79.2z"/> <path fill="#433f3f" d="M82,120.9c-23,0-41.7-18.7-41.7-41.7c0-23,18.7-41.7,41.7-41.7c23,0,41.7,18.7,41.7,41.7 C123.7,102.2,105,120.9,82,120.9z M82,40.3c-21.5,0-39,17.5-39,39c0,21.5,17.5,39,39,39c21.5,0,39-17.5,39-39 C121,57.7,103.5,40.3,82,40.3z"/> <path fill="#1e95d4" d="M11.4,192.2c0-39,31.6-70.6,70.7-70.6c39,0,70.6,31.6,70.6,70.6"/> <path fill="#433f3f" d="M154,192.2h-2.7c0-38.2-31.1-69.3-69.3-69.3c-38.2,0-69.3,31.1-69.3,69.3H10c0-19.2,7.5-37.3,21.1-50.9 c13.6-13.6,31.7-21.1,50.9-21.1c19.2,0,37.3,7.5,50.9,21.1C146.6,154.9,154,173,154,192.2L154,192.2z"/> <path fill="#1e95d4" d="M214.3,79.2c0,22.3-18.1,40.3-40.3,40.3c-22.3,0-40.3-18.1-40.3-40.3s18.1-40.3,40.3-40.3 C196.3,38.9,214.3,56.9,214.3,79.2z"/> <path fill="#433f3f" d="M174,120.9c-23,0-41.7-18.7-41.7-41.7c0-23,18.7-41.7,41.7-41.7c23,0,41.7,18.7,41.7,41.7 C215.7,102.2,197,120.9,174,120.9z M174,40.3c-21.5,0-39,17.5-39,39c0,21.5,17.5,39,39,39c21.5,0,39-17.5,39-39 C212.9,57.7,195.5,40.3,174,40.3z"/> <path fill="#1e95d4" d="M103.3,192.2c0-39,31.6-70.6,70.7-70.6c39,0,70.6,31.6,70.6,70.6"/> <path fill="#433f3f" d="M246,192.2h-2.7c0-38.2-31.1-69.3-69.3-69.3c-38.2,0-69.3,31.1-69.3,69.3H102c0-19.2,7.5-37.3,21.1-50.9 c13.6-13.6,31.7-21.1,50.9-21.1c19.2,0,37.3,7.5,50.9,21.1C238.5,154.9,246,173,246,192.2z"/> <path fill="#ffffff" d="M164.8,108c0,20.9-16.9,37.9-37.8,37.9c-20.9,0-37.8-17-37.8-37.9c0-20.9,16.9-37.8,37.8-37.8 C147.8,70.1,164.8,87.1,164.8,108z"/> <path fill="#433f3f" d="M126.9,147.2c-21.6,0-39.2-17.6-39.2-39.2c0-21.6,17.6-39.2,39.2-39.2c21.6,0,39.2,17.6,39.2,39.2 C166.1,129.6,148.5,147.2,126.9,147.2z M126.9,71.5c-20.1,0-36.5,16.4-36.5,36.5c0,20.1,16.4,36.5,36.5,36.5 c20.1,0,36.5-16.4,36.5-36.5C163.4,87.9,147,71.5,126.9,71.5L126.9,71.5z"/> <path fill="#1e95d4" d="M58.8,218.5c0-39,31.6-70.7,70.7-70.7c39,0,70.7,31.6,70.7,70.7"/> <path fill="#433f3f" d="M201.5,218.5h-2.7c0-38.2-31.1-69.3-69.3-69.3c-38.2,0-69.3,31.1-69.3,69.3h-2.7c0-19.2,7.5-37.3,21.1-50.9 c13.6-13.6,31.7-21.1,50.9-21.1s37.3,7.5,50.9,21.1S201.5,199.3,201.5,218.5z"/> <path fill="#433f3f" d="M127.5,130.4c-0.5,0-0.9,0-1.4-0.1c-4-0.3-7.5-2.1-10-5.1l2.1-1.8c2,2.4,4.9,3.8,8.1,4.1 c3.7,0.3,7.5-0.9,10.5-3.4l1.8,2.1C135.5,128.9,131.5,130.4,127.5,130.4z"/></g>
</svg>