<?xml version="1.0" standalone="no"?>
<!DOCTYPE svg PUBLIC "-//W3C//DTD SVG 20010904//EN"
 "http://www.w3.org/TR/2001/REC-SVG-20010904/DTD/svg10.dtd">
<svg version="1.0" xmlns="http://www.w3.org/2000/svg"
 width="512.000000pt" height="512.000000pt" viewBox="0 0 512.000000 512.000000"
 preserveAspectRatio="xMidYMid meet">

<g transform="translate(0.000000,512.000000) scale(0.100000,-0.100000)"
fill="#000000" stroke="none">
<path d="M2380 4954 c-241 -27 -382 -56 -555 -111 -507 -163 -948 -491 -1244
-927 -207 -305 -337 -638 -398 -1018 -24 -157 -24 -517 1 -676 74 -472 259
-879 561 -1230 382 -445 916 -731 1515 -814 123 -17 478 -16 600 1 697 96
1288 457 1678 1024 206 299 339 639 398 1019 25 157 25 518 1 675 -82 521
-313 985 -671 1347 -369 374 -830 607 -1363 691 -93 15 -448 28 -523 19z m268
-981 c14 -10 35 -32 46 -47 21 -27 21 -37 21 -646 0 -609 0 -619 -21 -646 -39
-53 -71 -69 -134 -69 -63 0 -95 16 -134 69 -21 27 -21 39 -24 619 -2 326 0
606 3 624 7 40 49 91 90 109 40 19 120 12 153 -13z m-797 -269 c38 -19 70 -67
76 -113 9 -67 -11 -103 -107 -191 -391 -357 -490 -893 -250 -1359 212 -411
681 -655 1135 -591 195 28 403 116 551 234 304 241 467 644 414 1021 -38 264
-175 523 -364 690 -96 84 -115 138 -77 221 23 49 68 84 120 91 70 9 106 -12
225 -131 206 -205 337 -444 397 -726 30 -142 33 -398 5 -545 -55 -295 -188
-547 -401 -760 -213 -213 -465 -346 -760 -401 -137 -26 -373 -26 -510 0 -594
112 -1050 567 -1161 1161 -28 146 -25 403 4 542 67 311 221 577 456 787 106
95 166 112 247 70z"/>
</g>
</svg>
